<mxfile host="Electron" agent="Mozilla/5.0 (X11; Linux x86_64) AppleWebKit/537.36 (KHTML, like Gecko) draw.io/27.0.2 Chrome/134.0.6998.205 Electron/35.3.0 Safari/537.36" version="27.0.2">
  <diagram name="overview" id="mKIFa4aMbozohOIOdsFU">
    <mxGraphModel dx="1345" dy="889" grid="1" gridSize="10" guides="1" tooltips="1" connect="1" arrows="1" fold="1" page="1" pageScale="1" pageWidth="850" pageHeight="1100" math="0" shadow="0">
      <root>
        <mxCell id="0" />
        <mxCell id="1" parent="0" />
        <mxCell id="A-mlydF9I6vuhAHR5PrJ-11" value="" style="edgeStyle=orthogonalEdgeStyle;rounded=0;orthogonalLoop=1;jettySize=auto;html=1;curved=1;entryX=1;entryY=0.5;entryDx=0;entryDy=0;" edge="1" parent="1" source="TnsR_pQopWVOQGvBc180-1" target="A-mlydF9I6vuhAHR5PrJ-18">
          <mxGeometry relative="1" as="geometry">
            <mxPoint x="290" y="300" as="sourcePoint" />
            <mxPoint x="175" y="240" as="targetPoint" />
          </mxGeometry>
        </mxCell>
        <mxCell id="A-mlydF9I6vuhAHR5PrJ-15" style="edgeStyle=orthogonalEdgeStyle;rounded=0;orthogonalLoop=1;jettySize=auto;html=1;curved=1;entryX=1;entryY=0.5;entryDx=0;entryDy=0;" edge="1" parent="1" source="TnsR_pQopWVOQGvBc180-1" target="A-mlydF9I6vuhAHR5PrJ-14">
          <mxGeometry relative="1" as="geometry" />
        </mxCell>
        <mxCell id="A-mlydF9I6vuhAHR5PrJ-17" style="edgeStyle=orthogonalEdgeStyle;rounded=0;orthogonalLoop=1;jettySize=auto;html=1;curved=1;entryX=1;entryY=0.5;entryDx=0;entryDy=0;" edge="1" parent="1" source="TnsR_pQopWVOQGvBc180-1" target="A-mlydF9I6vuhAHR5PrJ-16">
          <mxGeometry relative="1" as="geometry" />
        </mxCell>
        <mxCell id="A-mlydF9I6vuhAHR5PrJ-25" style="edgeStyle=orthogonalEdgeStyle;rounded=0;orthogonalLoop=1;jettySize=auto;html=1;entryX=1;entryY=0.5;entryDx=0;entryDy=0;curved=1;" edge="1" parent="1" source="TnsR_pQopWVOQGvBc180-1" target="A-mlydF9I6vuhAHR5PrJ-24">
          <mxGeometry relative="1" as="geometry" />
        </mxCell>
        <mxCell id="TnsR_pQopWVOQGvBc180-1" value="&lt;b&gt;&lt;font style=&quot;font-size: 16px;&quot;&gt;production&lt;br&gt;code&lt;/font&gt;&lt;/b&gt;" style="shape=cube;whiteSpace=wrap;html=1;boundedLbl=1;backgroundOutline=1;darkOpacity=0.05;darkOpacity2=0.1;size=10;fillColor=#f5f5f5;strokeColor=#666666;fontColor=#333333;" parent="1" vertex="1">
          <mxGeometry x="220" y="400" width="120" height="80" as="geometry" />
        </mxCell>
        <mxCell id="A-mlydF9I6vuhAHR5PrJ-13" style="edgeStyle=orthogonalEdgeStyle;rounded=0;orthogonalLoop=1;jettySize=auto;html=1;entryX=0;entryY=0.5;entryDx=0;entryDy=0;" edge="1" parent="1" source="TnsR_pQopWVOQGvBc180-2" target="A-mlydF9I6vuhAHR5PrJ-12">
          <mxGeometry relative="1" as="geometry" />
        </mxCell>
        <mxCell id="TnsR_pQopWVOQGvBc180-2" value="&lt;font style=&quot;font-size: 16px;&quot;&gt;&lt;b&gt;tests&lt;/b&gt;&lt;/font&gt;" style="image;aspect=fixed;html=1;points=[];align=center;fontSize=12;image=img/lib/azure2/general/Load_Test.svg;" parent="1" vertex="1">
          <mxGeometry x="360" y="409" width="68" height="66" as="geometry" />
        </mxCell>
        <mxCell id="A-mlydF9I6vuhAHR5PrJ-4" style="edgeStyle=orthogonalEdgeStyle;rounded=0;orthogonalLoop=1;jettySize=auto;html=1;exitX=0.044;exitY=0.47;exitDx=0;exitDy=0;exitPerimeter=0;endArrow=none;startFill=0;dashed=1;" edge="1" parent="1" source="TnsR_pQopWVOQGvBc180-2" target="TnsR_pQopWVOQGvBc180-1">
          <mxGeometry relative="1" as="geometry" />
        </mxCell>
        <mxCell id="A-mlydF9I6vuhAHR5PrJ-10" value="&lt;font style=&quot;font-size: 14px;&quot;&gt;SOLID&lt;/font&gt;" style="rounded=1;whiteSpace=wrap;html=1;fillColor=#f5f5f5;strokeColor=#666666;fontColor=#333333;" vertex="1" parent="1">
          <mxGeometry x="50" y="320" width="100" height="30" as="geometry" />
        </mxCell>
        <mxCell id="A-mlydF9I6vuhAHR5PrJ-12" value="&lt;font style=&quot;font-size: 14px;&quot;&gt;this presentation&lt;/font&gt;" style="rounded=1;whiteSpace=wrap;html=1;fillColor=#dae8fc;strokeColor=#6c8ebf;" vertex="1" parent="1">
          <mxGeometry x="490" y="423" width="120" height="38" as="geometry" />
        </mxCell>
        <mxCell id="A-mlydF9I6vuhAHR5PrJ-14" value="&lt;font style=&quot;font-size: 14px;&quot;&gt;dependency&lt;br&gt;injection&lt;/font&gt;" style="rounded=1;whiteSpace=wrap;html=1;fillColor=#f5f5f5;strokeColor=#666666;fontColor=#333333;" vertex="1" parent="1">
          <mxGeometry x="50" y="417.5" width="100" height="45" as="geometry" />
        </mxCell>
        <mxCell id="A-mlydF9I6vuhAHR5PrJ-16" value="&lt;font style=&quot;font-size: 14px;&quot;&gt;immutability&lt;/font&gt;" style="rounded=1;whiteSpace=wrap;html=1;fillColor=#f5f5f5;strokeColor=#666666;fontColor=#333333;" vertex="1" parent="1">
          <mxGeometry x="50" y="480" width="100" height="30" as="geometry" />
        </mxCell>
        <mxCell id="A-mlydF9I6vuhAHR5PrJ-18" value="&lt;font style=&quot;font-size: 14px;&quot;&gt;DRY&lt;/font&gt;" style="rounded=1;whiteSpace=wrap;html=1;fillColor=#f5f5f5;strokeColor=#666666;fontColor=#333333;" vertex="1" parent="1">
          <mxGeometry x="50" y="370" width="100" height="30" as="geometry" />
        </mxCell>
        <mxCell id="A-mlydF9I6vuhAHR5PrJ-20" style="edgeStyle=orthogonalEdgeStyle;rounded=0;orthogonalLoop=1;jettySize=auto;html=1;curved=1;entryX=1;entryY=0.5;entryDx=0;entryDy=0;" edge="1" parent="1" source="TnsR_pQopWVOQGvBc180-1" target="A-mlydF9I6vuhAHR5PrJ-10">
          <mxGeometry relative="1" as="geometry">
            <mxPoint x="230" y="450" as="sourcePoint" />
            <mxPoint x="160" y="450" as="targetPoint" />
          </mxGeometry>
        </mxCell>
        <mxCell id="A-mlydF9I6vuhAHR5PrJ-22" value="&lt;span style=&quot;font-size: 14px;&quot;&gt;pure functions&lt;/span&gt;" style="rounded=1;whiteSpace=wrap;html=1;fillColor=#f5f5f5;strokeColor=#666666;fontColor=#333333;" vertex="1" parent="1">
          <mxGeometry x="50" y="530" width="100" height="30" as="geometry" />
        </mxCell>
        <mxCell id="A-mlydF9I6vuhAHR5PrJ-23" style="edgeStyle=orthogonalEdgeStyle;rounded=0;orthogonalLoop=1;jettySize=auto;html=1;curved=1;entryX=1;entryY=0.5;entryDx=0;entryDy=0;" edge="1" parent="1" source="TnsR_pQopWVOQGvBc180-1" target="A-mlydF9I6vuhAHR5PrJ-22">
          <mxGeometry relative="1" as="geometry">
            <mxPoint x="230" y="450" as="sourcePoint" />
            <mxPoint x="160" y="505" as="targetPoint" />
          </mxGeometry>
        </mxCell>
        <mxCell id="A-mlydF9I6vuhAHR5PrJ-24" value="&lt;span style=&quot;font-size: 14px;&quot;&gt;etc.&lt;/span&gt;" style="rounded=1;whiteSpace=wrap;html=1;fillColor=#f5f5f5;strokeColor=#666666;fontColor=#333333;" vertex="1" parent="1">
          <mxGeometry x="50" y="580" width="100" height="30" as="geometry" />
        </mxCell>
      </root>
    </mxGraphModel>
  </diagram>
</mxfile>
